<svg version="1.0" xmlns="http://www.w3.org/2000/svg" width="476.000000px" height="476.000000px"
    viewBox="0 0 476.000000 476.000000" preserveAspectRatio="xMidYMid meet">

    <g transform="translate(0.000000,476.000000) scale(0.100000,-0.100000)" fill="#FFFFFF"
        stroke="none">
        <path d="M2155 4749 c-829 -85 -1543 -578 -1904 -1312 -117 -237 -188 -464
-227 -722 -25 -167 -25 -503 0 -670 118 -784 601 -1451 1299 -1794 237 -117
464 -188 722 -227 167 -25 503 -25 670 0 784 118 1451 601 1794 1299 117 237
188 464 227 722 25 167 25 503 0 670 -118 784 -601 1451 -1299 1794 -237 117
-468 189 -717 226 -136 20 -438 28 -565 14z m934 -1186 c11 -43 70 -262 129
-487 l109 -408 -84 -145 -84 -144 82 -142 c46 -78 82 -149 82 -157 -2 -19
-253 -953 -257 -958 -3 -2 -221 54 -487 125 l-482 129 -81 142 -81 141 -170 1
-170 0 -352 352 c-194 194 -353 357 -353 363 0 5 159 169 352 362 l353 353
166 0 167 0 82 143 c45 78 84 143 85 145 3 4 945 259 961 261 7 0 21 -34 33
-76z" />
        <path d="M2295 3119 l-330 -89 -255 -255 -255 -255 400 0 401 0 194 337 c107
185 197 340 198 345 6 14 -12 9 -353 -83z" />
        <path d="M2704 2725 l-201 -347 174 -301 c96 -166 186 -321 200 -345 13 -24
26 -42 28 -40 2 2 44 157 95 345 l91 342 -82 303 c-45 167 -87 322 -93 346
l-11 44 -201 -347z" />
        <path d="M1708 1977 l254 -254 341 -91 c188 -50 343 -89 346 -87 2 2 -84 156
-191 342 l-195 338 -404 3 -404 2 253 -253z" />
    </g>
</svg>
